# xmcd CD database file
#
# Track frame offsets:
#	150
#	13197
#	30207
#	53425
#	67272
#	76017
#	94235
#	110595
#	117800
#	128705
#	137315
#	147067
#	166330
#	171205
#	180400
#	194682
#	209375
#	221537
#
# Disc length: 3259 seconds
#
# Revision: 4
# Processed by: cddbd v1.5.2PL0 Copyright (c) Steve Scherf et al.
# Submitted via: CDex 1.70beta2
#
DISCID=f10cb912
DTITLE=Ry Cooder - Music By Ry Cooder CD1
DYEAR=1995
DGENRE=Blues
TTITLE0=Paris, Texas (From 'Paris, Texas')
TTITLE1=Theme From Southern Comfort (From 'Southern Comfort')
TTITLE2=Theme From Alamo Bay (From 'Alamo Bay')
TTITLE3=Across the Borderline (From 'The Border')
TTITLE4=Highway 23 (From 'The Border')
TTITLE5=Bomber Bash (From 'Streets Of Fire')
TTITLE6=Greenhouse (From 'Blue City')
TTITLE7=Nice Bike (From 'Blue City')
TTITLE8=I Like Your Eyes (From 'Johnny Handsome')
TTITLE9=Main Theme (From 'Johnny Handsome')
TTITLE10=See You In Hell, Blind Boy (From 'Crossroads')
TTITLE11=Feelin' Bad Blues (From 'Crossroads')
TTITLE12=Swamp Walk (From 'Southern Comfort')
TTITLE13=Angola (From 'Johnny Handsome')
TTITLE14=Viola Lee Blues (From 'Crossroads')
TTITLE15=The Long Riders (From 'The Long Riders')
TTITLE16=Archie's Funeral (Hold To God's Unchanging Hand) (From 'The Long Riders')
TTITLE17=Jesse James (From 'The Long Riders')
EXTD=YEAR: 1995
EXTT0=
EXTT1=
EXTT2=
EXTT3=
EXTT4=
EXTT5=
EXTT6=
EXTT7=
EXTT8=
EXTT9=
EXTT10=
EXTT11=
EXTT12=
EXTT13=
EXTT14=
EXTT15=
EXTT16=
EXTT17=
PLAYORDER=
